# xmcd
# 
# Track frame offsets:
#     150
#     17761
#     35605
#     55836
#     75997
# 
# Disc length: 1246
# 
# Revision: 4
# Processed by: cddbd v1.5.2PL0 Copyright (c) Steve Scherf et al.
# Submitted via: fre:ac v1.0.31
# 
DISCID=3004dc05
DTITLE=Bella Vista - 2002 Was kann schöner sein - Que sera sera CDM
DYEAR=0
DGENRE=Deutsch
TTITLE0=Was kann schöner sein (Que sera sera) '02 Radio Version
TTITLE1=Was kann schöner sein (Que sera sera) '02 Party Radio Mix Version
TTITLE2=Was kann schöner sein (Que sera sera) '02 Party Maxi Mix Version
TTITLE3=Was kann schöner sein (Que sera sera) '02 Long Version
TTITLE4=Was kann schöner sein (Que sera sera) '02 Instrumental Version
EXTD=
EXTT0=
EXTT1=
EXTT2=
EXTT3=
EXTT4=
PLAYORDER=
